<?xml version="1.0" encoding="UTF-8" standalone="no"?>
<!-- Uploaded to: SVG Repo, www.svgrepo.com, Generator: SVG Repo Mixer Tools -->

<svg
   width="800.21259"
   height="237.10025"
   viewBox="0 -189.93 539.99946 159.99999"
   version="1.1"
   id="svg35"
   sodipodi:docname="AppStore.svg"
   inkscape:version="1.2.2 (b0a8486541, 2022-12-01)"
   inkscape:export-filename="AppStore.svg"
   inkscape:export-xdpi="96"
   inkscape:export-ydpi="96"
   xmlns:inkscape="http://www.inkscape.org/namespaces/inkscape"
   xmlns:sodipodi="http://sodipodi.sourceforge.net/DTD/sodipodi-0.dtd"
   xmlns="http://www.w3.org/2000/svg"
   xmlns:svg="http://www.w3.org/2000/svg">
  <defs
     id="defs39">
    <linearGradient
       id="a"
       gradientUnits="userSpaceOnUse"
       x1="-23.235001"
       y1="97.431"
       x2="-23.235001"
       y2="61.386002"
       gradientTransform="matrix(16.017445,0,0,16.008801,768.21461,-1589.2587)">
      <stop
         offset="0"
         stop-color="#1a1a1a"
         stop-opacity=".1"
         id="stop10" />
      <stop
         offset=".123"
         stop-color="#212121"
         stop-opacity=".151"
         id="stop12" />
      <stop
         offset=".308"
         stop-color="#353535"
         stop-opacity=".227"
         id="stop14" />
      <stop
         offset=".532"
         stop-color="#575757"
         stop-opacity=".318"
         id="stop16" />
      <stop
         offset=".783"
         stop-color="#858585"
         stop-opacity=".421"
         id="stop18" />
      <stop
         offset="1"
         stop-color="#b3b3b3"
         stop-opacity=".51"
         id="stop20" />
    </linearGradient>
  </defs>
  <sodipodi:namedview
     id="namedview37"
     pagecolor="#505050"
     bordercolor="#eeeeee"
     borderopacity="1"
     inkscape:showpageshadow="0"
     inkscape:pageopacity="0"
     inkscape:pagecheckerboard="0"
     inkscape:deskcolor="#505050"
     showgrid="false"
     inkscape:zoom="1.4813887"
     inkscape:cx="418.18869"
     inkscape:cy="99.568736"
     inkscape:window-width="1920"
     inkscape:window-height="1014"
     inkscape:window-x="1280"
     inkscape:window-y="0"
     inkscape:window-maximized="1"
     inkscape:current-layer="svg35" />
  <path
     fill="#ffffff"
     d="m 536.41751,-48.81921 a 15.328273,15.324213 0 0 1 -15.34428,15.32422 H 18.926215 A 15.348284,15.344219 0 0 1 3.5619224,-48.81921 V -171.0248 A 15.368294,15.364224 0 0 1 18.926215,-186.36902 H 521.06923 a 15.344281,15.340217 0 0 1 15.34428,15.34422 z"
     id="path2"
     style="stroke-width:4.00163" />
  <path
     fill="#a6a6a6"
     d="M 521.07323,-29.93001 H 18.926215 A 18.930217,18.925203 0 0 1 0,-48.81921 V -171.0208 A 18.942223,18.937206 0 0 1 18.926215,-189.93 H 521.06923 a 18.950228,18.945209 0 0 1 18.92621,18.9092 v 122.20159 c 0.008,10.41887 -8.49659,18.8892 -18.92221,18.8892 z"
     id="path4"
     style="stroke-width:4.00163" />
  <path
     d="m 536.41751,-48.81921 a 15.328273,15.324213 0 0 1 -15.34428,15.32422 H 18.926215 A 15.348284,15.344219 0 0 1 3.5619224,-48.81921 V -171.0248 A 15.368294,15.364224 0 0 1 18.926215,-186.36902 H 521.06923 a 15.344281,15.340217 0 0 1 15.34428,15.34422 z"
     id="path6"
     style="stroke-width:4.00163" />
  <path
     fill="#ffffff"
     d="m 120.57708,-110.77224 c -0.11607,-12.89554 10.5617,-19.16927 11.04996,-19.46135 -6.04726,-8.81442 -15.42032,-10.01875 -18.7141,-10.11478 -7.87225,-0.82823 -15.50837,4.7093 -19.518534,4.7093 -4.090208,0 -10.265541,-4.62928 -16.921133,-4.49324 -8.564622,0.13204 -16.576946,5.0894 -20.971318,12.78752 -9.068895,15.69631 -2.305244,38.76265 6.383445,51.45014 4.346346,6.21771 9.425087,13.15162 16.072675,12.90755 6.50351,-0.26407 8.932821,-4.14114 16.781057,-4.14114 7.776198,0 10.057428,4.14114 16.837088,3.9851 6.97977,-0.10803 11.37414,-6.24172 15.5684,-12.51144 5.02271,-7.11796 7.0398,-14.13589 7.11984,-14.495988 -0.16008,-0.05602 -13.55131,-5.169421 -13.68738,-20.621672 z m -12.80692,-37.92242 c 3.49789,-4.37321 5.89118,-10.32284 5.22683,-16.3605 -5.06274,0.22406 -11.39415,3.50096 -15.040122,7.77814 -3.225741,3.76903 -6.107296,9.94673 -5.362894,15.75633 5.687069,0.42411 11.526216,-2.86879 15.176186,-7.17397 z"
     id="path8"
     style="stroke-width:4.00163" />
  <path
     fill="url(#a)"
     d="M 521.07323,-189.93 H 252.10806 l 105.34886,159.99999 h 163.61631 a 18.942223,18.937206 0 0 0 18.92621,-18.9012 V -171.0208 A 18.946225,18.941207 0 0 0 521.07323,-189.93 Z"
     id="path23"
     style="fill:url(#a);stroke-width:4.00163" />
  <g
     fill="#ffffff"
     id="g27"
     transform="matrix(4.00216,0,0,4.0011,0,-189.93)">
    <path
       d="M 53.665,31.504 H 51.394 L 50.15,27.595 h -4.324 l -1.185,3.909 H 42.43 l 4.285,-13.308 h 2.646 z M 49.775,25.955 48.65,22.48 c -0.119,-0.355 -0.343,-1.191 -0.671,-2.507 h -0.04 c -0.132,0.566 -0.343,1.402 -0.632,2.507 l -1.106,3.475 z m 14.888,0.633 c 0,1.632 -0.443,2.922 -1.33,3.869 -0.794,0.843 -1.781,1.264 -2.958,1.264 -1.271,0 -2.185,-0.453 -2.74,-1.361 v 5.035 H 55.503 V 25.062 c 0,-1.025 -0.027,-2.076 -0.079,-3.154 h 1.875 l 0.119,1.521 h 0.04 c 0.711,-1.146 1.79,-1.719 3.238,-1.719 1.132,0 2.077,0.447 2.833,1.342 0.755,0.897 1.134,2.075 1.134,3.536 z m -2.172,0.078 c 0,-0.934 -0.21,-1.704 -0.632,-2.311 -0.461,-0.631 -1.08,-0.947 -1.856,-0.947 -0.526,0 -1.004,0.176 -1.431,0.523 -0.428,0.35 -0.708,0.807 -0.839,1.373 a 2.784,2.784 0 0 0 -0.099,0.649 v 1.601 c 0,0.697 0.214,1.286 0.642,1.768 0.428,0.48 0.984,0.721 1.668,0.721 0.803,0 1.428,-0.311 1.875,-0.928 0.448,-0.619 0.672,-1.435 0.672,-2.449 z M 75.7,26.588 c 0,1.632 -0.443,2.922 -1.33,3.869 -0.795,0.843 -1.781,1.264 -2.959,1.264 -1.271,0 -2.185,-0.453 -2.74,-1.361 v 5.035 H 66.539 V 25.062 c 0,-1.025 -0.027,-2.076 -0.079,-3.154 h 1.875 l 0.119,1.521 h 0.04 c 0.71,-1.146 1.789,-1.719 3.238,-1.719 1.131,0 2.076,0.447 2.834,1.342 0.754,0.897 1.134,2.075 1.134,3.536 z m -2.173,0.078 c 0,-0.934 -0.211,-1.704 -0.633,-2.311 -0.461,-0.631 -1.078,-0.947 -1.854,-0.947 -0.526,0 -1.004,0.176 -1.433,0.523 -0.428,0.35 -0.707,0.807 -0.838,1.373 -0.065,0.264 -0.1,0.479 -0.1,0.649 v 1.601 c 0,0.697 0.215,1.286 0.641,1.768 0.428,0.479 0.984,0.721 1.67,0.721 0.804,0 1.429,-0.311 1.875,-0.928 0.448,-0.619 0.672,-1.435 0.672,-2.449 z m 14.513,1.105 c 0,1.133 -0.396,2.054 -1.183,2.765 -0.866,0.776 -2.075,1.165 -3.625,1.165 -1.432,0 -2.58,-0.276 -3.446,-0.829 l 0.493,-1.777 c 0.935,0.554 1.962,0.83 3.08,0.83 0.804,0 1.429,-0.182 1.875,-0.543 0.447,-0.362 0.673,-0.846 0.673,-1.45 0,-0.541 -0.187,-0.994 -0.554,-1.363 -0.369,-0.368 -0.979,-0.711 -1.836,-1.026 -2.33,-0.869 -3.496,-2.14 -3.496,-3.812 0,-1.092 0.412,-1.986 1.234,-2.685 0.822,-0.698 1.912,-1.047 3.268,-1.047 1.211,0 2.22,0.211 3.021,0.632 l -0.535,1.738 c -0.754,-0.408 -1.605,-0.612 -2.557,-0.612 -0.752,0 -1.342,0.185 -1.764,0.553 -0.355,0.329 -0.535,0.73 -0.535,1.206 0,0.525 0.205,0.961 0.613,1.303 0.354,0.315 1,0.658 1.934,1.026 1.146,0.462 1.988,1 2.527,1.618 0.543,0.618 0.813,1.389 0.813,2.308 z m 7.067,-4.263 h -2.35 v 4.659 c 0,1.185 0.414,1.776 1.244,1.776 0.381,0 0.697,-0.032 0.947,-0.099 l 0.059,1.619 c -0.42,0.157 -0.973,0.236 -1.658,0.236 -0.842,0 -1.5,-0.257 -1.975,-0.771 -0.473,-0.514 -0.711,-1.375 -0.711,-2.587 v -4.837 h -1.4 v -1.6 h 1.4 v -1.757 l 2.094,-0.632 v 2.389 h 2.35 z m 10.582,3.119 c 0,1.475 -0.422,2.686 -1.264,3.633 -0.881,0.975 -2.053,1.461 -3.514,1.461 -1.41,0 -2.531,-0.467 -3.367,-1.4 -0.836,-0.935 -1.254,-2.113 -1.254,-3.534 0,-1.487 0.432,-2.705 1.293,-3.652 0.863,-0.948 2.025,-1.422 3.486,-1.422 1.408,0 2.539,0.468 3.395,1.402 0.818,0.906 1.225,2.076 1.225,3.512 z m -2.21,0.049 c 0,-0.879 -0.19,-1.633 -0.571,-2.264 -0.447,-0.762 -1.087,-1.143 -1.916,-1.143 -0.854,0 -1.509,0.381 -1.955,1.143 -0.382,0.631 -0.572,1.398 -0.572,2.304 0,0.88 0.19,1.636 0.572,2.265 0.461,0.762 1.104,1.143 1.937,1.143 0.815,0 1.454,-0.389 1.916,-1.162 0.392,-0.646 0.589,-1.405 0.589,-2.286 z m 9.143,-2.893 a 3.71,3.71 0 0 0 -0.672,-0.059 c -0.75,0 -1.33,0.282 -1.738,0.85 -0.354,0.5 -0.532,1.132 -0.532,1.895 v 5.035 h -2.132 V 24.93 a 67.43,67.43 0 0 0 -0.062,-3.021 h 1.857 l 0.078,1.836 h 0.059 c 0.226,-0.631 0.58,-1.14 1.066,-1.521 a 2.578,2.578 0 0 1 1.541,-0.514 c 0.197,0 0.375,0.014 0.533,0.039 z m 9.535,2.469 a 5,5 0 0 1 -0.078,0.967 h -6.396 c 0.024,0.948 0.334,1.674 0.928,2.174 0.539,0.446 1.236,0.67 2.092,0.67 0.947,0 1.811,-0.15 2.588,-0.453 l 0.334,1.479 c -0.908,0.396 -1.98,0.593 -3.217,0.593 -1.488,0 -2.656,-0.438 -3.506,-1.312 -0.848,-0.875 -1.273,-2.051 -1.273,-3.524 0,-1.446 0.395,-2.651 1.186,-3.612 0.828,-1.026 1.947,-1.539 3.355,-1.539 1.383,0 2.43,0.513 3.141,1.539 0.563,0.813 0.846,1.821 0.846,3.018 z m -2.033,-0.553 c 0.015,-0.633 -0.125,-1.178 -0.414,-1.639 -0.369,-0.594 -0.937,-0.89 -1.698,-0.89 -0.697,0 -1.265,0.289 -1.697,0.869 -0.355,0.461 -0.566,1.015 -0.631,1.658 z"
       id="path25" />
  </g>
  <g
     fill="#ffffff"
     id="g31"
     transform="matrix(4.00216,0,0,4.0011,0,-189.93)">
    <text
       xml:space="preserve"
       style="font-size:9.44363px;font-family:'Product Sans';-inkscape-font-specification:'Product Sans';letter-spacing:0.505909px;fill:#ffffff;fill-opacity:0.999368;stroke:#ffffff;stroke-width:0.0505909;paint-order:markers fill stroke"
       x="45.615406"
       y="13.30794"
       id="text488"
       transform="scale(0.99986752,1.0001325)"><tspan
         sodipodi:role="line"
         id="tspan486"
         style="font-style:normal;font-variant:normal;font-weight:normal;font-stretch:normal;font-size:9.44363px;font-family:'Product Sans';-inkscape-font-specification:'Product Sans';stroke-width:0.0505909"
         x="45.615406"
         y="13.30794">Disponible en</tspan></text>
  </g>
</svg>
