<?xml version="1.0" encoding="UTF-8" standalone="no"?>
<!-- Created with Inkscape (http://www.inkscape.org/) -->

<svg
   version="1.1"
   id="svg2"
   width="191.31465"
   height="192.51819"
   viewBox="0 0 191.31465 192.51819"
   sodipodi:docname="default_user.jpg"
   xml:space="preserve"
   xmlns:inkscape="http://www.inkscape.org/namespaces/inkscape"
   xmlns:sodipodi="http://sodipodi.sourceforge.net/DTD/sodipodi-0.dtd"
   xmlns="http://www.w3.org/2000/svg"
   xmlns:svg="http://www.w3.org/2000/svg"><defs
     id="defs6" /><sodipodi:namedview
     id="namedview4"
     pagecolor="#ffffff"
     bordercolor="#000000"
     borderopacity="0.25"
     inkscape:showpageshadow="2"
     inkscape:pageopacity="0.0"
     inkscape:pagecheckerboard="0"
     inkscape:deskcolor="#d1d1d1"
     showgrid="false"
     inkscape:zoom="1.684375"
     inkscape:cx="297.73655"
     inkscape:cy="106.27087"
     inkscape:window-width="1366"
     inkscape:window-height="691"
     inkscape:window-x="0"
     inkscape:window-y="0"
     inkscape:window-maximized="1"
     inkscape:current-layer="g8" /><g
     inkscape:groupmode="layer"
     inkscape:label="Image"
     id="g8"
     transform="translate(-54.590484,-72.520359)"><path
       style="fill:#999999;stroke-width:0.593692"
       d="m 142.25054,264.51739 c -7.36222,-0.6116 -16.77913,-2.54254 -23.45084,-4.80859 -23.050002,-7.82896 -43.532292,-26.24802 -54.284062,-48.81588 -12.89171,-27.05957 -13.24126,-57.85896 -0.95188,-83.87132 4.86603,-10.29968 11.02615,-18.62689 20.57912,-27.81869 14.66634,-14.111829 28.238482,-21.114058 48.457572,-25.000538 10.43338,-2.005486 25.45456,-2.24812 34.882,-0.563443 17.8539,3.190479 34.2202,11.527975 47.47978,24.187651 9.19337,8.77743 15.84977,18.027 21.37166,29.69752 15.07105,31.8527 12.20239,68.75624 -7.60631,97.85061 -4.41328,6.48207 -16.15832,18.01181 -22.92694,22.50667 -14.39892,9.56192 -29.77776,15.05344 -46.62988,16.65072 -7.15647,0.67831 -8.59297,0.67706 -16.92022,-0.0147 z m 18.40445,-34.36717 c 6.12693,-2.05393 11.70332,-5.6875 17.27082,-11.25363 8.01055,-8.00859 11.88958,-16.1692 11.90566,-25.04689 0.0309,-17.0266 -12.31709,-27.30797 -33.92601,-28.24812 -13.83636,-0.60199 -27.6985,2.31974 -34.39504,7.24945 -10.13828,7.46338 -13.12969,22.3543 -6.95881,34.64025 5.74026,11.42858 16.11564,19.92269 28.39664,23.24775 5.4639,1.47934 12.20619,1.25513 17.70674,-0.58881 z m 0,-78.71803 c 8.34928,-3.33174 13.67885,-11.19516 13.64614,-20.13397 -0.0361,-9.86932 -6.27827,-20.06692 -14.62144,-23.88655 -10.69601,-4.89679 -25.09971,0.0323 -30.19306,10.33233 -2.36059,4.77371 -2.75892,11.96765 -0.98587,17.80501 2.33735,7.69523 8.13534,13.86988 15.23401,16.22367 4.44293,1.4732 12.7964,1.30509 16.92022,-0.34049 z"
       id="path1840" /></g></svg>
